<?xml version="1.0" encoding="UTF-8" standalone="no"?>
<!-- Created with Inkscape (http://www.inkscape.org/) -->

<svg
   width="100"
   height="100"
   viewBox="0 0 26.458333 26.458333"
   version="1.1"
   id="svg1"
   xmlns="http://www.w3.org/2000/svg"
   xmlns:svg="http://www.w3.org/2000/svg">
   <defs
      id="defs1" />
   <g
      id="layer1">
      <g
         id="g2"
         transform="matrix(0.26458333,0,0,0.26458333,250.03125,55.562499)">&#10; <circle
            fill="#cac5c0"
            cx="-895"
            cy="-160"
            r="50"
            id="circle1" /> &#10;</g>
      <path
         fill="#0d0f0f"
         d="m 6.085409,13.871579 c 0,-2.58948 0.54531,-4.9776101 1.6380398,-7.1628001 1.35387,-2.70828 3.2075412,-4.06268 5.5594212,-4.06268 2.32754,0 4.14496,1.15332 5.45174,3.45652 1.09193,1.90129 1.63803,4.1108301 1.63803,6.6280701 0,2.61435 -0.5461,4.97787 -1.63803,7.09163 -1.33112,2.66118 -3.18426,3.99018 -5.55916,3.99018 -2.25716,0 -4.0494512,-1.13956 -5.3805712,-3.42 -1.1398198,-1.9476 -1.7094698,-4.12115 -1.7094698,-6.52092 z m 2.9921698,-1.17581 c 0,3.42 0.5106501,6.08118 1.5332612,7.98195 0.712,1.32953 1.62613,1.99522 2.74294,1.99522 2.68446,0 4.02722,-2.77971 4.02722,-8.33914 0,-2.44581 -0.21405,-4.5135201 -0.64082,-6.2002401 -0.73686,-2.77919 -1.98385,-4.16984 -3.74253,-4.16984 -2.61382,0 -3.9200712,2.68552 -3.9200712,8.0547101 z"
         id="path1"
         style="stroke-width:0.264583" />
   </g>
</svg>