<?xml version="1.0" encoding="UTF-8" standalone="no"?>
<!-- Created with Inkscape (http://www.inkscape.org/) -->

<svg
   width="100"
   height="100"
   viewBox="0 0 26.458333 26.458333"
   version="1.1"
   id="svg1"
   inkscape:version="1.3 (0e150ed6c4, 2023-07-21)"
   sodipodi:docname="2.svg"
   xmlns:inkscape="http://www.inkscape.org/namespaces/inkscape"
   xmlns:sodipodi="http://sodipodi.sourceforge.net/DTD/sodipodi-0.dtd"
   xmlns="http://www.w3.org/2000/svg"
   xmlns:svg="http://www.w3.org/2000/svg">
  <sodipodi:namedview
     id="namedview1"
     pagecolor="#505050"
     bordercolor="#eeeeee"
     borderopacity="1"
     inkscape:showpageshadow="0"
     inkscape:pageopacity="0"
     inkscape:pagecheckerboard="0"
     inkscape:deskcolor="#505050"
     inkscape:document-units="px"
     inkscape:zoom="4.1798822"
     inkscape:cx="46.652033"
     inkscape:cy="49.881789"
     inkscape:window-width="1920"
     inkscape:window-height="1009"
     inkscape:window-x="-8"
     inkscape:window-y="468"
     inkscape:window-maximized="1"
     inkscape:current-layer="layer1" />
  <defs
     id="defs1" />
  <g
     inkscape:label="Layer 1"
     inkscape:groupmode="layer"
     id="layer1">
    <g
       id="g3"
       transform="matrix(0.26458333,0,0,0.26458333,194.46875,55.563028)">&#10;	<circle
   fill="#cac5c0"
   cx="-685"
   cy="-160.002"
   r="50"
   id="circle3" />
&#10;</g>
    <path
       fill="#0d0f0f"
       d="m 20.489863,18.548614 -1.559984,5.264679 H 5.9676765 v -1.125538 c 0.629709,-0.701674 2.009511,-2.116931 4.1396715,-4.247356 1.282965,-1.283758 2.552965,-2.638425 3.811852,-4.06691 0.629179,-0.70141 1.113896,-1.307571 1.451769,-1.815571 0.750358,-1.088496 1.125802,-2.201333 1.125802,-3.3400997 0,-1.1123083 -0.344223,-2.0933832 -1.033992,-2.9400499 -0.689768,-0.847725 -1.579562,-1.2721166 -2.669645,-1.2721166 -2.347119,0 -4.1865025,1.5869708 -5.5176215,4.7572082 L 6.1126685,9.3270913 C 7.6861455,4.8744184 10.16635,2.6466268 13.555663,2.6466268 c 1.670314,0 3.092185,0.5685896 4.266141,1.7060333 1.174486,1.1377083 1.761067,2.5410583 1.761067,4.2121666 0,2.1304253 -1.221581,4.2116373 -3.666596,6.2444313 l -2.541058,2.105025 c -1.62216,1.356519 -2.966508,2.627048 -4.0298695,3.813175 -0.07408,0.07223 -0.218546,0.242358 -0.435768,0.508264 h 6.7524315 c 1.040341,0 1.827477,-0.205316 2.359554,-0.617802 0.459052,-0.363008 0.908579,-1.053042 1.344083,-2.069306 z"
       id="path3"
       style="stroke-width:0.264583" />
  </g>
</svg>
