<?xml version="1.0" encoding="UTF-8" standalone="no"?>
<!-- Created with Inkscape (http://www.inkscape.org/) -->

<svg
   width="100"
   height="100"
   viewBox="0 0 26.458333 26.458333"
   version="1.1"
   id="svg1"
   inkscape:version="1.3 (0e150ed6c4, 2023-07-21)"
   sodipodi:docname="6.svg"
   xmlns:inkscape="http://www.inkscape.org/namespaces/inkscape"
   xmlns:sodipodi="http://sodipodi.sourceforge.net/DTD/sodipodi-0.dtd"
   xmlns="http://www.w3.org/2000/svg"
   xmlns:svg="http://www.w3.org/2000/svg">
  <sodipodi:namedview
     id="namedview1"
     pagecolor="#505050"
     bordercolor="#eeeeee"
     borderopacity="1"
     inkscape:showpageshadow="0"
     inkscape:pageopacity="0"
     inkscape:pagecheckerboard="0"
     inkscape:deskcolor="#505050"
     inkscape:document-units="px"
     inkscape:zoom="4.1798822"
     inkscape:cx="46.652033"
     inkscape:cy="49.881789"
     inkscape:window-width="1920"
     inkscape:window-height="1009"
     inkscape:window-x="-8"
     inkscape:window-y="468"
     inkscape:window-maximized="1"
     inkscape:current-layer="layer1" />
  <defs
     id="defs1" />
  <g
     inkscape:label="Layer 1"
     inkscape:groupmode="layer"
     id="layer1">
    <g
       id="g7"
       transform="matrix(0.26458333,0,0,0.26458333,83.343749,55.563028)">&#10;	<circle
   fill="#cac5c0"
   cx="-265"
   cy="-160.002"
   r="50"
   id="circle7" />
&#10;</g>
    <path
       fill="#0d0f0f"
       d="m 9.6784579,11.820789 c 1.5700381,-1.475581 3.1511881,-2.2129748 4.7463611,-2.2129748 1.736725,0 3.129491,0.6895038 4.176977,2.0693058 0.974195,1.262063 1.462881,2.783681 1.462881,4.569354 0,1.951567 -0.570971,3.664215 -1.713177,5.139532 -1.261533,1.617662 -2.831836,2.427287 -4.711436,2.427287 -2.261393,0 -4.069556,-0.976313 -5.425016,-2.927085 -1.214438,-1.713707 -1.821127,-3.748352 -1.821127,-6.104202 0,-2.497667 0.6897689,-4.7998064 2.0701,-6.9058897 C 9.843294,5.7705622 11.687704,4.2772538 13.9954,3.3972497 15.304294,2.8977164 16.685683,2.6460976 18.136129,2.6460976 V 3.7531143 C 15.042885,3.9200664 12.734925,5.1575226 11.210925,7.465483 10.428287,8.6563725 9.91579,10.106818 9.6784579,11.820789 Z m -0.214841,2.141008 c -0.02276,0.428096 -0.03519,0.856721 -0.03519,1.285082 0,1.64121 0.285221,3.164416 0.8561921,4.569089 0.736864,1.831446 1.821127,2.747698 3.248818,2.747698 1.236663,0 2.164292,-0.629973 2.783417,-1.892035 0.475456,-0.974725 0.713581,-2.152386 0.713581,-3.533511 0,-1.473994 -0.226748,-2.736321 -0.678127,-3.783277 -0.619125,-1.427692 -1.570566,-2.141008 -2.855648,-2.141008 -1.569773,-2.65e-4 -2.914914,0.916516 -4.0330431,2.747962 z"
       id="path7"
       style="stroke-width:0.264583" />
  </g>
</svg>
