<?xml version="1.0" encoding="UTF-8" standalone="no"?>
<!-- Created with Inkscape (http://www.inkscape.org/) -->

<svg
   width="100"
   height="100"
   viewBox="0 0 26.458333 26.458333"
   version="1.1"
   id="svg1"
   inkscape:version="1.3 (0e150ed6c4, 2023-07-21)"
   sodipodi:docname="7.svg"
   xmlns:inkscape="http://www.inkscape.org/namespaces/inkscape"
   xmlns:sodipodi="http://sodipodi.sourceforge.net/DTD/sodipodi-0.dtd"
   xmlns="http://www.w3.org/2000/svg"
   xmlns:svg="http://www.w3.org/2000/svg">
  <sodipodi:namedview
     id="namedview1"
     pagecolor="#505050"
     bordercolor="#eeeeee"
     borderopacity="1"
     inkscape:showpageshadow="0"
     inkscape:pageopacity="0"
     inkscape:pagecheckerboard="0"
     inkscape:deskcolor="#505050"
     inkscape:document-units="px"
     inkscape:zoom="4.1798822"
     inkscape:cx="46.652033"
     inkscape:cy="49.881789"
     inkscape:window-width="1920"
     inkscape:window-height="1009"
     inkscape:window-x="-8"
     inkscape:window-y="468"
     inkscape:window-maximized="1"
     inkscape:current-layer="layer1" />
  <defs
     id="defs1" />
  <g
     inkscape:label="Layer 1"
     inkscape:groupmode="layer"
     id="layer1">
    <g
       id="g8"
       transform="matrix(0.26458333,0,0,0.26458333,55.562499,55.563028)">&#10;	<circle
   fill="#cac5c0"
   cx="-160"
   cy="-160.002"
   r="50"
   id="circle8" />
&#10;</g>
    <path
       fill="#0d0f0f"
       d="m 14.15362,23.813028 h -3.080543 v -0.327554 c 0,-1.956858 0.61595,-4.407693 1.846791,-7.357533 1.861344,-4.444735 3.577167,-7.850981 5.14694,-10.2192663 L 18.284295,5.582708 h -7.211483 c -1.039812,0 -1.8309167,0.2166937 -2.3746347,0.6516687 -0.544777,0.4352396 -0.947738,1.1607271 -1.213379,2.1754042 h -1.195917 l 1.303337,-5.7631541 h 0.762265 c 0.458787,0.2418291 1.254654,0.3627437 2.3920977,0.3627437 h 9.421548 v 1.6311563 c -0.337344,0.4839229 -0.772055,1.2567708 -1.303338,2.3198666 -1.015471,1.9804062 -1.945217,4.2883666 -2.792148,6.9222936 -1.254918,3.889904 -1.89521,7.199048 -1.919023,9.930341 z"
       id="path8"
       style="stroke-width:0.264583" />
  </g>
</svg>
