<?xml version="1.0" encoding="UTF-8" standalone="no"?>
<!-- Created with Inkscape (http://www.inkscape.org/) -->

<svg
   width="100"
   height="100"
   viewBox="0 0 26.458333 26.458333"
   version="1.1"
   id="svg1"
   xmlns="http://www.w3.org/2000/svg"
   xmlnsSvg="http://www.w3.org/2000/svg">
  <defs
     id="defs1" />
  <g
     id="layer1">
    <g
       id="g26"
       transform="matrix(0.26458333,0,0,0.26458333,111.125,0)">&#10;	<circle
   fill="#c1d7e9"
   cx="-370"
   cy="50"
   r="50"
   id="circle26" />
&#10;</g>
    <path
       fill="#0d0f0f"
       d="m 17.8562,22.150652 c -1.26656,1.288785 -2.826808,1.93331 -4.67995,1.93331 -2.079889,0 -3.7300964,-0.711729 -4.9506184,-2.135981 -1.153319,-1.356519 -1.729582,-3.085571 -1.729582,-5.187421 0,-2.260335 0.983457,-4.838171 2.950104,-7.732183 C 11.050588,6.655329 12.93839,4.57544 15.108767,2.789502 c -0.316706,1.447006 -0.474398,2.475177 -0.474398,3.085571 0,1.402027 0.440267,2.769394 1.321858,4.103158 1.085321,1.582208 1.910027,2.758546 2.475707,3.526367 0.881591,1.334293 1.322387,2.633927 1.322387,3.899164 5.29e-4,1.87669 -0.632619,3.459163 -1.898121,4.74689 z m -0.03413,-7.239529 c -0.338931,-0.756973 -0.734748,-1.259946 -1.186921,-1.508919 0.06773,0.135996 0.101865,0.328083 0.101865,0.576792 0,0.474927 -0.135467,1.152789 -0.407194,2.034381 l -0.440267,1.356519 c 0,0.791104 0.394759,1.18692 1.186392,1.18692 0.836083,0 1.254654,-0.554302 1.254654,-1.661847 0,-0.564621 -0.169333,-1.22555 -0.508529,-1.983846 z"
       id="path27"
       style="stroke-width:0.264583" />
  </g>
</svg>
