<?xml version="1.0" encoding="UTF-8" standalone="no"?>
<!-- Created with Inkscape (http://www.inkscape.org/) -->

<svg
   width="100"
   height="100"
   viewBox="0 0 26.458333 26.458333"
   version="1.1"
   id="svg1"
   xmlns="http://www.w3.org/2000/svg"
   xmlnsSvg="http://www.w3.org/2000/svg">
   <defs
      id="defs1" />
   <g
      id="layer1">
      <g
         id="g25"
         transform="matrix(0.26458333,0,0,0.26458333,83.343749,5.2887598e-4)">&#10; <circle
            fill="#bab1ab"
            cx="-265"
            cy="49.998001"
            r="50"
            id="circle25" /> &#10;</g>
      <path
         fill="#0d0f0f"
         d="m 23.996385,12.864306 c 0,1.459971 -0.531283,2.455598 -1.592791,2.986352 -0.310092,0.155046 -1.28323,0.364861 -2.920207,0.630502 -1.061508,0.177271 -1.592262,0.586581 -1.592262,1.227402 V 20.3962 c 0,0.111654 0.03307,0.45376 0.09922,1.028964 l 0.09975,1.062038 c 0,0.332052 -0.07752,0.874712 -0.232568,1.626129 -0.420159,0.08837 -0.906992,0.18759 -1.459971,0.299508 -0.177271,-0.664368 -0.265642,-1.1176 -0.265642,-1.361546 0,-0.110066 0.02778,-0.276489 0.08282,-0.497945 0.05477,-0.220663 0.08361,-0.386557 0.08361,-0.498211 0,-0.153458 -0.137583,-0.585523 -0.412485,-1.293018 h -0.514615 c -0.06826,0.110595 -0.09102,0.254264 -0.06879,0.431006 0.08837,0.376237 0.121443,0.696648 0.09975,0.962289 -0.376237,0.265642 -0.896143,0.61939 -1.559718,1.061773 -0.155046,-0.04392 -0.209815,-0.06615 -0.166423,-0.06615 v -2.35585 c -0.04339,-0.110066 -0.154517,-0.153722 -0.331788,-0.13282 h -0.397933 l -0.397933,3.118643 c -0.310621,0.02222 -0.6858,0.02222 -1.128184,0 C 11.26465,23.051289 10.98869,21.967821 10.590757,20.529546 H 10.3251 c -0.243946,0.774964 -0.3762381,1.195652 -0.3984631,1.261798 0,0.08837 0.02752,0.259556 0.08308,0.513821 0.05477,0.254529 0.08281,0.425714 0.08281,0.514085 0,0.06615 -0.02222,0.232039 -0.06615,0.497681 l -0.09975,0.796396 c -0.04445,0.04392 -0.09975,0.06615 -0.165893,0.06615 -0.663575,0 -1.106488,-0.165894 -1.32715,-0.497152 -0.221192,-0.332317 -0.310092,-0.796925 -0.265642,-1.394619 l 0.265642,-3.981185 c 0,-0.06668 0.0217,-0.155046 0.06615,-0.265642 0.04339,-0.110596 0.06614,-0.188119 0.06614,-0.23204 0,-0.17727 -0.188118,-0.531283 -0.563827,-1.062037 -0.06562,-0.0217 -0.409839,-0.09975 -1.028435,-0.232569 -0.376767,-0.08837 -1.117865,-0.242887 -2.223029,-0.464608 -1.526911,-0.286808 -2.289704,-1.51474 -2.289704,-3.683 0,-3.2297693 1.327679,-5.9174066 3.982243,-8.0631774 0.109538,0.5974292 0.298186,1.3932958 0.563298,2.3889229 0.199496,0.044979 0.631031,0.1441979 1.2940771,0.2987146 0.13335,0.04445 0.807773,0.2878666 2.024592,0.73025 C 9.7049169,7.3450976 8.8982019,6.7373496 7.9025749,5.8962392 7.5263369,5.4538559 7.3382189,4.7132872 7.3382189,3.6737393 c 0,-0.2434167 0.420687,-0.5312834 1.261533,-0.8636 0.751417,-0.3095625 1.316302,-0.485775 1.6922751,-0.5307542 1.194329,-0.1539875 2.112433,-0.2325687 2.754312,-0.2325687 2.764632,0 4.998244,0.7085541 6.701367,2.1243395 -0.55245,0.6418792 -1.503892,1.3266208 -2.853002,2.0566063 0.531283,0.022225 1.305454,-0.1870605 2.322777,-0.6305021 1.017058,-0.4418542 1.448594,-0.663575 1.294077,-0.663575 0.176742,0 0.531283,0.3545417 1.062038,1.0620375 0.397933,0.5307541 0.718343,1.0072687 0.962289,1.4263687 0.707496,1.2615333 1.182952,2.6214917 1.426898,4.0814627 0,0.509588 0.01085,0.874448 0.03307,1.09511 v 0.265642 z m -12.708202,0.597429 c 0,-0.950912 -0.414866,-1.852612 -1.244335,-2.704835 C 9.21385,9.9052057 8.323527,9.4800207 7.3726149,9.4800207 c -0.840846,0 -1.581415,0.356658 -2.22303,1.0686523 -0.641879,0.712523 -0.962289,1.503362 -0.962289,2.37146 0,0.756444 0.36486,1.246981 1.09511,1.469231 0.464609,0.13388 1.116277,0.211932 1.957388,0.233628 h 1.825096 c 1.4811371,0.02223 2.2232931,-0.364861 2.2232931,-1.161257 z m 3.616325,4.115065 v -1.028965 c -0.154516,-0.287337 -0.309562,-0.586052 -0.464079,-0.896143 -0.132821,-0.442913 -0.376237,-1.062038 -0.73025,-1.858698 l -0.36539,3.882495 c 0,0.310092 -0.06615,0.464609 -0.198966,0.464609 -0.08837,0 -0.154517,-0.0217 -0.198967,-0.06562 -0.155046,-2.345002 -0.232569,-3.362589 -0.232569,-3.053556 v -1.160727 c -0.04445,-0.0672 -0.09922,-0.100277 -0.165364,-0.100277 -0.752475,0.775229 -1.128184,2.024591 -1.128184,3.749675 0,0.951441 0.08731,1.537493 0.265113,1.75895 0.177271,-0.04392 0.376237,-0.121444 0.597429,-0.23204 0.08837,-0.04445 0.342636,-0.06668 0.763852,-0.06668 0.4191,0 0.928688,0.132821 1.525588,0.397933 0.221191,0 0.331787,-0.5969 0.331787,-1.790964 z m 7.49935,-4.623594 c 0,-0.890852 -0.331787,-1.686719 -0.995362,-2.387864 -0.664105,-0.7006173 -1.427427,-1.0517193 -2.289175,-1.0517193 -0.929217,0 -1.797844,0.425185 -2.605088,1.2768793 -0.807773,0.851694 -1.211262,1.742017 -1.211262,2.671233 0,0.7747 0.375708,1.161257 1.128183,1.161257 h 3.815821 c 1.437481,-0.0217 2.156883,-0.57838 2.156883,-1.669786 z"
         id="path26"
         style="stroke-width:0.264583" />
   </g>
</svg>