<?xml version="1.0" encoding="UTF-8" standalone="no"?>
<!-- Created with Inkscape (http://www.inkscape.org/) -->

<svg
   width="100"
   height="100"
   viewBox="0 0 26.458333 26.458333"
   version="1.1"
   id="svg1"
   xmlns="http://www.w3.org/2000/svg"
   xmlnsSvg="http://www.w3.org/2000/svg">
   <defs
      id="defs1" />
   <g
      id="layer1">
      <g
         id="g23"
         transform="matrix(0.26458333,0,0,0.26458333,27.78125,0)">&#10; <path
            fill="#a3c095"
            d="M -5,49.998 C -5,77.613 -27.385,100 -55.002,100 -82.615,100 -105,77.613 -105,49.998 -105,22.385 -82.615,0 -55.002,0 -27.385,0 -5,22.385 -5,49.998 Z"
            id="path23" /> &#10;</g>
      <path
         fill="#0d0f0f"
         d="m 24.807863,14.876198 c 0,0.441325 -0.170657,0.837141 -0.512234,1.190096 -0.341048,0.352425 -0.732896,0.528637 -1.173691,0.528637 -0.704321,0 -1.223169,-0.330729 -1.55284,-0.991658 l -1.553369,-0.06615 c -0.331258,0 -0.981339,0.143669 -1.950243,0.429948 -1.03558,0.286279 -1.630892,0.517789 -1.78488,0.694002 -0.242358,0.264054 -0.440266,0.881592 -0.594783,1.851025 -0.132821,0.793221 -0.197908,1.377156 -0.197908,1.751806 0,0.594254 0.09313,1.030023 0.280723,1.305454 0.187589,0.275431 0.573087,0.506942 1.156493,0.694002 0.583407,0.187061 0.942182,0.2921 1.074473,0.314061 0.08784,0 0.230982,-0.01085 0.429948,-0.03307 h 0.396346 c 0.28575,0 0.583406,0.04498 0.89244,0.132291 0.440795,0.132292 0.628385,0.308505 0.562239,0.529167 -0.309033,-0.04392 -0.848519,0.02222 -1.619514,0.198438 l 0.924983,0.462491 c 0,0.264584 -0.37465,0.396346 -1.123421,0.396346 -0.198967,0 -0.468577,-0.04392 -0.810419,-0.131762 -0.341577,-0.0889 -0.567531,-0.132292 -0.677068,-0.132292 H 16.54519 c -0.0217,0.220133 -0.08837,0.550333 -0.198438,0.991129 -0.375179,-0.02222 -0.814916,-0.242887 -1.321858,-0.660929 -0.507471,-0.418042 -0.826294,-0.627856 -0.958056,-0.627856 -0.132821,0 -0.320411,0.209814 -0.56224,0.627856 -0.242887,0.418042 -0.363802,0.70485 -0.363802,0.859367 -0.286279,-0.154517 -0.528108,-0.441325 -0.727604,-0.859367 -0.08784,-0.286808 -0.187061,-0.573088 -0.296598,-0.859367 -0.220133,0.02222 -0.628385,0.485246 -1.22264,1.388534 h -0.165893 c -0.04392,-0.06668 -0.210344,-0.529167 -0.495565,-1.388534 -0.6831544,-0.220133 -1.3218584,-0.3302 -1.9171714,-0.3302 -0.286279,0 -0.727075,0.06615 -1.321858,0.197909 l -0.924983,-0.06562 c 0.131762,-0.132292 0.51726,-0.385498 1.156493,-0.760148 0.748771,-0.440796 1.321859,-0.661458 1.718734,-0.661458 0.06509,0 0.152929,0.01138 0.264583,0.03307 0.109537,0.02275 0.198437,0.03307 0.264583,0.03307 0.152929,0 0.401638,-0.08255 0.7432154,-0.24818 0.341577,-0.164835 0.539485,-0.313795 0.594254,-0.445558 0.05583,-0.13335 0.08361,-0.474398 0.08361,-1.02526 0,-1.255713 -0.330729,-2.192073 -0.9921874,-2.809082 -0.573617,-0.550862 -1.520296,-0.947208 -2.842683,-1.190095 -0.352425,1.255712 -1.344084,1.884627 -2.973917,1.884627 -0.529167,0 -1.057804,-0.319352 -1.586442,-0.958586 -0.528108,-0.639233 -0.792691,-1.223168 -0.792691,-1.751806 0,-0.815446 0.340518,-1.487223 1.023673,-2.016919 -0.550334,-0.572029 -0.825765,-1.155964 -0.825765,-1.750748 0,-0.551391 0.170127,-1.035579 0.512233,-1.455208 0.341577,-0.417512 0.787665,-0.6604 1.338527,-0.727075 -0.04392,-0.704321 0.187061,-1.189567 0.694002,-1.45415 -0.242358,-0.241829 -0.363272,-0.671248 -0.363272,-1.288256 0,-0.727075 0.242358,-1.333235 0.727075,-1.817952 0.484187,-0.484717 1.090347,-0.727604 1.817422,-0.727604 0.79375,0 1.443832,0.276489 1.950244,0.826823 0.639233,-2.181225 2.0163904,-3.272102 4.1309404,-3.272102 1.101725,0 2.071158,0.440795 2.908829,1.322387 0.308504,0.3302 0.462491,0.506942 0.462491,0.528108 -0.264583,0 -0.131762,-0.04974 0.396875,-0.148431 0.528109,-0.09922 0.913607,-0.14896 1.157023,-0.14896 0.858838,0 1.618986,0.319352 2.280444,0.958585 0.572558,0.573088 0.969433,1.299633 1.190096,2.181225 0.153458,0.02223 0.396346,0.08784 0.727075,0.197908 0.484187,0.243417 0.727075,0.66093 0.727075,1.256242 0,0.110596 -0.0889,0.319881 -0.264583,0.627856 1.4097,0.793221 2.115079,1.894946 2.115079,3.305175 0,0.396346 -0.153988,0.948267 -0.462492,1.652852 0.573088,0.329936 0.858838,0.815182 0.858838,1.453886 z m -13.617311,1.45415 v -0.429419 c 0,-0.506413 -0.24765,-0.969433 -0.743214,-1.388004 -0.4960944,-0.418571 -0.9974794,-0.627856 -1.5038924,-0.627856 -0.617537,0 -1.189567,0.143139 -1.718733,0.428889 1.167606,-0.06562 2.489993,0.60669 3.9658394,2.01639 z m -0.594254,-4.098131 c -0.330729,-0.37518 -0.6170084,-0.760678 -0.8598964,-1.157023 -0.925512,0.242358 -1.388004,0.517789 -1.388004,0.825764 0.264583,-0.02117 0.650081,0.02778 1.156494,0.149225 0.5064124,0.121444 0.8707444,0.182034 1.0914064,0.182034 z m 2.01639,-1.024732 V 9.753335 C 12.083521,9.665495 11.763111,9.621044 11.654102,9.621044 v 0.495564 z m 4.296304,-0.925512 C 16.644408,10.171906 16.148315,9.951244 15.421769,9.621044 v 2.842154 c 1.03505,-0.595313 1.530614,-1.322388 1.487223,-2.181225 z m 1.816894,3.900223 -0.726546,-0.89244 c -0.440267,0.308769 -0.886884,0.622829 -1.339057,0.942181 -0.452172,0.319352 -0.842962,0.678127 -1.172633,1.074209 0.991394,-0.529696 2.071423,-0.903288 3.238236,-1.12395 z"
         id="path24"
         style="stroke-width:0.264583" />
   </g>
</svg>