<?xml version="1.0" encoding="UTF-8" standalone="no"?>
<!-- Created with Inkscape (http://www.inkscape.org/) -->

<svg
   width="100"
   height="100"
   viewBox="0 0 26.458333 26.458333"
   version="1.1"
   id="svg1"
   xmlns="http://www.w3.org/2000/svg"
   xmlnsSvg="http://www.w3.org/2000/svg">
   <defs
      id="defs1" />
   <g
      id="layer1">
      <g
         id="g24"
         transform="matrix(0.26458333,0,0,0.26458333,55.562499,0)">&#10; <circle
            fill="#e49977"
            cx="-160"
            cy="50"
            r="50"
            id="circle24" /> &#10;</g>
      <path
         fill="#0d0f0f"
         d="m 24.332406,17.625748 c -0.988484,2.357966 -2.95275,3.536685 -5.893594,3.536685 -0.538956,0 -1.123421,0.0672 -1.751806,0.201613 -0.942975,0.202141 -1.414463,0.483658 -1.414463,0.842962 0,0.112183 0.07805,0.240771 0.235744,0.387085 0.156633,0.146315 0.2921,0.218546 0.404019,0.218546 -0.561711,0 -0.179917,0.01693 1.144587,0.05054 1.325034,0.0336 2.155825,0.05053 2.492904,0.05053 -1.953418,1.144588 -5.220758,1.671902 -9.8009597,1.582473 -1.50495,-0.02222 -2.795587,-0.684742 -3.873235,-1.987021 -1.056217,-1.235339 -1.583267,-2.6162 -1.583267,-4.142846 0,-1.616075 0.544248,-2.991908 1.634067,-4.126177 1.088231,-1.132945 2.441839,-1.700477 4.058179,-1.700477 0.3590387,0 0.8360827,0.07858 1.4313957,0.235744 0.594783,0.157163 0.993775,0.235744 1.195387,0.235744 0.830527,0 1.86399,-0.342106 3.099065,-1.027377 1.234545,-0.684742 1.81901,-1.027377 1.751806,-1.027377 -0.224896,2.357966 -1.010708,3.941233 -2.358496,4.748741 -0.9652,0.561711 -1.448064,1.111515 -1.448064,1.649942 0,0.336815 0.202141,0.60669 0.60616,0.808831 0.314325,0.157427 0.661987,0.236009 1.043781,0.236009 0.583936,0 1.156494,-0.358775 1.718204,-1.077119 0.560652,-0.719138 0.808302,-1.369748 0.741098,-1.954213 -0.0672,-0.673364 -0.02222,-1.48246 0.134938,-2.424641 0.04445,-0.269875 0.207168,-0.600604 0.487891,-0.993246 0.280723,-0.393171 0.5334,-0.634471 0.758032,-0.724429 0,0.201612 -0.07276,0.538956 -0.219075,1.010179 -0.146315,0.471223 -0.218546,0.820208 -0.218546,1.04431 0,0.493977 0.134408,0.875506 0.404019,1.144588 0.403489,-0.156634 0.762793,-0.661988 1.077912,-1.515798 0.268817,-0.650611 0.425715,-1.279525 0.471223,-1.885686 -0.943504,-0.04498 -1.847321,-0.471222 -2.71145,-1.280054 -0.864658,-0.808831 -1.296458,-1.684073 -1.296458,-2.626783 0,-0.157163 0.0217,-0.314325 0.06773,-0.471752 0.134408,0.202142 0.336285,0.516731 0.605631,0.942975 0.381794,0.561181 0.673894,0.841904 0.876565,0.841904 0.268816,0 0.403489,-0.280723 0.403489,-0.841904 0,-0.718344 -0.191293,-1.369483 -0.572558,-1.953419 -0.426773,-0.696119 -0.977106,-1.04431 -1.650471,-1.04431 -0.314589,0 -0.786077,0.168539 -1.413933,0.505354 -0.629444,0.336285 -1.202002,0.505354 -1.717675,0.505354 -0.157692,0 -0.85434,-0.202671 -2.088885,-0.606689 2.17752,-0.358511 3.267075,-0.684213 3.267075,-0.976578 0,-0.763322 -1.493573,-1.280054 -4.4793957,-1.549135 -0.292365,-0.02222 -0.831056,-0.0672 -1.616869,-0.134937 0.08943,-0.112184 0.729721,-0.235744 1.9203457,-0.370417 1.010179,-0.111654 1.717675,-0.16854 2.121429,-0.16854 5.343789,0 8.734425,2.59424 10.171377,7.780867 0.247121,-0.204523 0.370946,-0.546629 0.370946,-1.024202 0,-0.614892 -0.179917,-1.389063 -0.538956,-2.322248 -0.135467,-0.363802 -0.348721,-0.910431 -0.640292,-1.638565 1.840706,2.346061 2.761985,4.569354 2.761985,6.667236 0,1.105429 -0.259027,2.109523 -0.775229,3.011223 -0.336021,0.609335 -0.965729,1.387475 -1.885685,2.335212 -0.92075,0.947208 -1.549665,1.680633 -1.886744,2.199481 1.235075,-0.336285 2.043906,-0.594783 2.4257,-0.7747 0.852752,-0.381 1.627187,-0.954087 2.323835,-1.717675 0,0.292629 -0.12356,0.730779 -0.370416,1.314186 z M 9.6475023,4.389967 c 0,0.403489 -0.224896,0.661987 -0.673365,0.77417 l -0.876035,0.134938 c -0.31459,0.157162 -0.7747,0.7747 -1.380861,1.852083 -0.06773,-0.336285 -0.168539,-0.807773 -0.303212,-1.414462 -0.202142,0.02275 -0.538427,0.202141 -1.010179,0.538956 -0.202142,0.157163 -0.528109,0.392642 -0.977107,0.706967 0.135467,-0.808302 0.583936,-1.626659 1.347788,-2.458773 0.808302,-0.919956 1.594114,-1.380331 2.357437,-1.380331 1.01018,0 1.515534,0.415925 1.515534,1.246452 z m 5.8605197,3.098006 c 0,0.381794 -0.207697,0.702204 -0.623093,0.960173 -0.415396,0.258498 -0.825236,0.387614 -1.229254,0.387614 -0.538957,0 -1.022086,-0.303212 -1.448065,-0.909637 C 11.69035,7.185025 11.1633,6.702425 10.624343,6.477 c 0.112184,-0.111654 0.247121,-0.16801 0.404548,-0.16801 0.202142,0 0.543719,0.157162 1.026848,0.471222 0.4826,0.31459 0.791104,0.471752 0.926571,0.471752 0.112183,0 0.297127,-0.157162 0.555625,-0.471752 0.257969,-0.314325 0.544248,-0.471222 0.858837,-0.471222 0.740834,2.64e-4 1.11125,0.393435 1.11125,1.178983 z"
         id="path25"
         style="stroke-width:0.264583" />
   </g>
</svg>